<svg width="177" height="151" viewBox="0 0 177 151" fill="none" xmlns="http://www.w3.org/2000/svg">
<path d="M176.438 86.8867C175.545 85.7618 173.912 85.5737 172.787 86.4649L167.691 90.5062L126.503 36.4281L150.049 21.3157C151.257 20.5406 151.607 18.9338 150.832 17.7263C150.057 16.5188 148.451 16.1682 147.243 16.9433L121.328 33.5767C120.071 34.3836 119.758 36.147 120.664 37.3369L125.38 43.5295L122.027 46.0966L108.712 41.6976C108.452 41.6125 108.171 41.5666 107.897 41.5666H77.4158C76.2238 41.5666 75.1846 42.3779 74.8956 43.5343L73.1802 50.3951L68.8507 48.5722C68.4372 48.398 67.985 48.3344 67.5408 48.3862L55.4972 49.7967L51.4052 47.421L55.2974 40.6798C56.0047 39.454 55.5712 37.8382 54.3467 37.1312L3.89712 8.00343C2.65363 7.28575 1.06513 7.71166 0.348492 8.95411C-0.368838 10.1966 0.0567202 11.7854 1.29917 12.5027L40.8367 35.3298L6.7139 94.4327L3.89712 92.8065C2.65363 92.0885 1.06513 92.5147 0.348492 93.7572C-0.368838 94.9996 0.0567202 96.5885 1.29917 97.3058L15.0273 105.232C16.2542 105.94 17.8693 105.506 18.576 104.281L20.5624 100.841L26.1665 103.83C24.3385 107.374 24.5186 111.797 27.0114 115.243C29.1427 118.188 32.4815 119.753 35.8659 119.753C36.9953 119.753 38.1295 119.577 39.2261 119.221C39.233 121.54 39.9704 123.77 41.3726 125.632C43.5017 128.46 46.7921 129.959 50.1174 129.959C51.2285 129.959 52.3437 129.791 53.4206 129.45C53.4496 131.618 54.1193 133.798 55.4841 135.685C57.1926 138.046 59.7183 139.6 62.5955 140.062C63.1805 140.156 63.7657 140.202 64.3469 140.202C65.4749 140.202 66.587 140.026 67.6511 139.685C67.6818 141.909 68.3895 144.067 69.7208 145.906C71.4292 148.267 73.9549 149.822 76.8322 150.284C77.4171 150.377 78.0024 150.424 78.5835 150.424C80.8614 150.424 83.0752 149.711 84.9562 148.35L91.017 143.964C92.3283 143.016 93.3865 141.817 94.1501 140.448L104.813 146.26C106.437 147.146 108.219 147.596 110.02 147.596C111.054 147.596 112.096 147.447 113.116 147.146C115.912 146.323 118.22 144.461 119.614 141.901C120.701 139.907 121.13 137.675 120.877 135.464C121.529 135.584 122.186 135.643 122.839 135.643C126.707 135.643 130.46 133.584 132.438 129.956C133.551 127.914 133.938 125.669 133.694 123.517C134.348 123.638 135.006 123.697 135.662 123.697C139.53 123.697 143.283 121.638 145.261 118.01C146.347 116.017 146.776 113.786 146.524 111.576C147.172 111.697 147.829 111.759 148.489 111.759C149.524 111.759 150.565 111.61 151.585 111.309C154.381 110.486 156.689 108.623 158.084 106.064C159.479 103.505 159.794 100.556 158.971 97.7604C158.773 97.0883 158.513 96.4457 158.2 95.8359L162.757 92.6015L165.164 95.7619C166.033 96.902 167.72 97.115 168.845 96.2234L176.016 90.5363C177.14 89.6447 177.329 88.0109 176.438 86.8867ZM15.3758 99.4339L11.2135 97.0306L45.3364 37.9277L49.4986 40.331L15.3758 99.4339ZM39.2009 113.476C36.6485 115.324 33.0681 114.75 31.2207 112.197C29.3736 109.644 29.9478 106.063 32.5008 104.216L50.878 90.9193C51.8988 90.1809 53.0732 89.8234 54.2354 89.8234C55.9463 89.8234 57.6313 90.5974 58.761 92.0684C60.6976 94.5906 60.1521 98.3159 57.5797 100.179L39.2009 113.476ZM53.4372 123.698C50.9323 125.511 47.3815 124.976 45.5231 122.507C43.5975 119.95 44.339 116.172 46.8879 114.328L60.624 104.389C61.1239 104.056 61.5861 103.705 62.1461 103.468C62.943 103.129 63.8155 102.976 64.6801 103.024C66.3346 103.116 67.8837 103.948 68.8918 105.26C70.8284 107.782 70.2832 111.508 67.7105 113.371L53.4372 123.698ZM67.6735 133.919C66.437 134.814 64.9259 135.174 63.4183 134.932C61.911 134.69 60.588 133.876 59.693 132.639C57.8466 130.087 58.4195 126.509 60.9693 124.661C60.9693 124.661 70.7569 117.579 70.7579 117.578L71.1395 117.302C73.6628 115.477 77.1254 115.982 79.0226 118.451C80.9595 120.974 80.4133 124.701 77.8396 126.563L67.6735 133.919ZM90.2759 135.949C90.0515 137.49 89.2325 138.842 87.9707 139.755L81.9099 144.14C79.3849 145.968 75.754 145.383 73.9294 142.861C72.0964 140.328 72.6938 136.714 75.2091 134.88L80.8856 130.773L81.2703 130.495C83.7573 128.696 87.2852 129.211 89.153 131.644C90.102 132.879 90.5006 134.408 90.2759 135.949ZM153.522 103.577C152.032 106.31 148.506 107.353 145.768 105.86L115.733 89.4891C114.473 88.8029 112.895 89.2672 112.209 90.5269C111.522 91.7867 111.986 93.3644 113.246 94.0514L138.415 107.77C141.182 109.278 142.206 112.756 140.699 115.523C139.19 118.29 135.712 119.315 132.945 117.806L107.407 103.887C106.147 103.2 104.57 103.665 103.883 104.924C103.196 106.184 103.661 107.762 104.921 108.449L125.596 119.718C128.36 121.228 129.382 124.704 127.875 127.469C126.386 130.202 122.86 131.245 120.122 129.752L98.4759 117.954C97.2151 117.268 95.638 117.732 94.9515 118.992C94.2649 120.251 94.7292 121.829 95.9889 122.516L112.769 131.662C115.502 133.152 116.544 136.678 115.052 139.416C113.562 142.149 110.036 143.19 107.299 141.698L95.5288 135.283C95.5703 132.832 94.7935 130.458 93.2738 128.479C91.2328 125.822 88.2428 124.356 85.1591 124.206C85.2079 123.976 85.2525 123.743 85.2867 123.508C85.7154 120.565 84.9545 117.646 83.1433 115.288C81.102 112.63 78.112 111.165 75.0283 111.015C75.0771 110.784 75.1217 110.552 75.1559 110.316C75.5846 107.373 74.8237 104.455 73.0126 102.096C70.9712 99.4384 67.9812 97.973 64.8976 97.8233C64.9463 97.5927 64.9909 97.3601 65.0251 97.1246C65.4538 94.182 64.6929 91.2629 62.8818 88.9049C59.2602 84.1888 52.6487 83.2257 47.8323 86.7114L29.7027 99.8273L23.1613 96.3385L48.8069 51.9196L53.6356 54.7233C54.1213 55.0054 54.6859 55.1215 55.2421 55.0569L67.4647 53.6253L71.9046 55.4949L69.353 65.7021C69.3018 65.9081 69.2755 66.1197 69.2755 66.3323V88.5004C69.2755 96.0447 75.4135 102.182 82.9574 102.182C90.5016 102.182 96.6392 96.0443 96.6392 88.5004V67.0773L97.1114 66.3219L151.238 95.8238C153.971 97.3134 155.014 100.839 153.522 103.577ZM154.761 91.9049C154.429 91.674 154.085 91.4576 153.725 91.2615L99.8708 61.9073L101.869 58.7106C102.629 57.4937 102.259 55.8911 101.042 55.1309C99.8269 54.371 98.2228 54.7402 97.4626 55.9571L91.8388 64.9554C91.5812 65.3681 91.444 65.8452 91.444 66.3323V88.5004C91.444 93.1795 87.6375 96.9867 82.9577 96.9867C78.2779 96.9867 74.4714 93.1798 74.4714 88.5004V66.6521L79.4436 46.7621H107.479L121.7 51.4606C122.509 51.7278 123.419 51.5739 124.094 51.0568L128.528 47.6627L159.606 88.4662L154.761 91.9049Z" fill="url(#paint0_linear_220_54)"/>
<path d="M176.588 1.19498C175.813 -0.0125562 174.206 -0.363097 172.999 0.411966L158.444 9.75351C157.237 10.5286 156.886 12.1354 157.661 13.3429C158.157 14.1163 158.994 14.538 159.849 14.538C160.33 14.538 160.816 14.4049 161.25 14.1263L175.805 4.78474C177.012 4.00899 177.363 2.40217 176.588 1.19498Z" fill="url(#paint1_linear_220_54)"/>
<defs>
<linearGradient id="paint0_linear_220_54" x1="-1.85507e-06" y1="150.424" x2="177.734" y2="149.504" gradientUnits="userSpaceOnUse">
<stop stop-color="#1A4578"/>
</linearGradient>
<linearGradient id="paint1_linear_220_54" x1="157.249" y1="14.538" x2="177.081" y2="14.4256" gradientUnits="userSpaceOnUse">
<stop stop-color="#1A4578"/>
</linearGradient>
</defs>
</svg>
