<svg width="160" height="152" viewBox="0 0 160 152" fill="none" xmlns="http://www.w3.org/2000/svg">
<path d="M127.307 13.5601H127.28C125.876 13.5601 124.752 14.6982 124.752 16.1023C124.752 17.5064 125.904 18.6446 127.307 18.6446C128.711 18.6446 129.85 17.5064 129.85 16.1023C129.85 14.6982 128.711 13.5601 127.307 13.5601Z" fill="url(#paint0_linear_220_35)"/>
<path d="M90.7117 117.425L66.5149 107.343C65.4376 106.895 64.7419 105.851 64.7419 104.684V99.5511L69.2661 97.0378C73.1423 94.8841 75.6961 90.962 76.0974 86.5461L76.1074 86.4366H78.4697C82.862 86.4366 86.4354 82.8632 86.4354 78.4709V73.5744C87.1476 71.8523 89.147 66.3402 89.147 58.7359C89.147 48.2292 85.0313 38.3159 77.5583 30.8216C74.6989 27.9545 71.4647 25.5712 67.9561 23.7125C67.8339 15.1069 59.2187 8.13623 48.6415 8.13623C38.0643 8.13623 29.4491 15.1069 29.3265 23.7125C25.8179 25.5709 22.5837 27.9542 19.7244 30.8216C12.2513 38.3159 8.13565 48.2289 8.13565 58.7359C8.13565 66.3402 10.135 71.8519 10.8472 73.5744V78.4709C10.8472 82.8632 14.4207 86.4366 18.8129 86.4366H21.1753L21.1849 86.5461C21.5862 90.962 24.1403 94.8844 28.0166 97.0378L32.5407 99.5511V104.684C32.5407 105.85 31.8448 106.894 30.7677 107.343L6.57095 117.425C2.57905 119.088 0 122.957 0 127.281V143.551C0 147.943 3.57344 151.517 7.96571 151.517H89.3166C93.7089 151.517 97.2823 147.943 97.2823 143.551V127.281C97.282 122.957 94.7029 119.088 90.7117 117.425ZM81.3509 78.4706C81.3509 80.0593 80.0584 81.3518 78.4697 81.3518H76.5698L77.5866 70.1659H78.4697C80.0584 70.1659 81.3509 71.4584 81.3509 73.0471V78.4706ZM48.6412 13.2207C55.3 13.2207 60.9034 16.6676 62.4516 21.3071C58.0967 19.7798 53.4416 18.9831 48.6412 18.9831C43.8407 18.9831 39.1859 19.7798 34.8307 21.3071C36.3786 16.6676 41.982 13.2207 48.6412 13.2207ZM18.8123 81.3518C17.2236 81.3518 15.9311 80.0593 15.9311 78.4706V73.0471C15.9311 71.4584 17.2236 70.1659 18.8123 70.1659H19.6954L20.7122 81.3518H18.8123ZM30.4858 92.5932C28.0814 91.2573 26.4971 88.8245 26.2482 86.0855L24.3128 64.7967C27.638 64.7758 33.4687 64.4927 40.2872 63.0799C54.2317 60.1909 65.6081 53.8878 73.1862 44.8525C74.0886 43.7771 73.948 42.1734 72.8719 41.2713C71.7962 40.3689 70.1928 40.5095 69.2904 41.5856C52.7515 61.305 22.1039 59.6895 21.6848 59.6639V59.6667C21.5563 59.6589 21.4263 59.6573 21.2941 59.6695C19.8959 59.7967 18.8653 61.0331 18.9925 62.4313L19.2333 65.0821H18.8123C17.0324 65.0821 15.387 65.6692 14.0593 66.6592C13.5984 64.5189 13.2192 61.8236 13.2192 58.7359C13.2192 49.5847 16.8079 40.9467 23.324 34.4119C29.976 27.7412 38.967 24.0673 48.6408 24.0673C58.3147 24.0673 67.3054 27.7409 73.9577 34.4119C80.4737 40.9461 84.0625 49.5847 84.0625 58.7359C84.0625 61.8232 83.6836 64.5192 83.2224 66.6595C81.8947 65.6692 80.2495 65.0821 78.4694 65.0821H78.0484L78.2895 62.431C78.3581 61.6798 78.0886 60.9367 77.5551 60.4032L72.1317 54.9798C71.1388 53.9869 69.5292 53.9869 68.5367 54.9798C67.5439 55.9726 67.5439 57.5819 68.5367 58.5747L73.1183 63.1563L71.3082 83.0674C69.2321 84.9037 62.6474 89.4871 48.6408 89.4871C47.2367 89.4871 46.0986 90.6253 46.0986 92.0294C46.0986 93.4335 47.2367 94.5716 48.6408 94.5716C58.3739 94.5716 65.0344 92.5336 69.3543 90.3824C68.6717 91.2739 67.8077 92.0316 66.7965 92.5935L52.6739 100.439C50.1485 101.842 47.1332 101.842 44.6081 100.439L30.4858 92.5932ZM32.7231 112.036C35.701 110.796 37.6249 107.909 37.6249 104.684V102.376L42.1388 104.883C44.1747 106.014 46.4076 106.58 48.6412 106.58C50.8747 106.58 53.1076 106.015 55.1435 104.883L59.6574 102.376V104.684C59.6574 107.91 61.5813 110.796 64.5592 112.036L67.2258 113.147C62.4569 118.684 57.8479 121.435 54.7263 122.78C51.2735 124.268 48.8828 124.39 48.6408 124.399C48.3989 124.39 46.0082 124.268 42.5554 122.78C39.4338 121.435 34.8251 118.684 30.0559 113.147L32.7231 112.036ZM16.2701 146.433H7.96571C6.377 146.433 5.08451 145.14 5.08451 143.551V127.281C5.08451 126.58 5.21454 125.903 5.45526 125.275L14.1712 132.248C15.5055 133.315 16.2701 134.907 16.2701 136.615V146.433ZM75.9274 136.614V146.432H21.3546V136.614C21.3546 133.353 19.894 130.314 17.3474 128.277L9.26474 121.811L25.1435 115.194C33.5205 125.555 41.9879 128.406 46.0986 129.188V137.789C46.0986 139.193 47.2367 140.331 48.6408 140.331C50.045 140.331 51.1831 139.193 51.1831 137.789V129.188C55.2941 128.406 63.7612 125.555 72.1382 115.194L88.0169 121.811L79.9343 128.277C77.388 130.314 75.9274 133.353 75.9274 136.614ZM92.1975 143.551C92.1975 145.14 90.905 146.433 89.3163 146.433H81.0116V136.615C81.0116 134.906 81.7765 133.315 83.1105 132.247L91.8264 125.274C92.0672 125.902 92.1972 126.58 92.1972 127.281V143.551H92.1975Z" fill="url(#paint1_linear_220_35)"/>
<path d="M45.508 71.9436C44.2932 69.4225 41.3633 67.793 38.0434 67.793C34.7234 67.793 31.7936 69.4222 30.5788 71.9436C29.9695 73.2083 30.5008 74.7278 31.7659 75.3374C33.0306 75.947 34.5501 75.4151 35.1597 74.1503C35.4568 73.5335 36.5688 72.8775 38.0437 72.8775C39.5186 72.8775 40.6302 73.5332 40.9277 74.1503C41.3655 75.0599 42.2741 75.59 43.2199 75.59C43.59 75.59 43.9661 75.5086 44.3215 75.3374C45.586 74.7278 46.1173 73.2086 45.508 71.9436Z" fill="url(#paint2_linear_220_35)"/>
<path d="M66.7033 71.9436C65.4888 69.4225 62.5589 67.793 59.2387 67.793C55.9185 67.793 52.9889 69.4222 51.7741 71.9436C51.1645 73.2086 51.6961 74.7278 52.9612 75.3374C54.2259 75.947 55.7454 75.4151 56.355 74.1503C56.6522 73.5335 57.7641 72.8775 59.239 72.8775C60.7139 72.8775 61.8255 73.5332 62.123 74.1503C62.5608 75.0599 63.4695 75.59 64.4152 75.59C64.7853 75.59 65.1614 75.5086 65.5169 75.3374C66.7813 74.7278 67.3129 73.2086 66.7033 71.9436Z" fill="url(#paint3_linear_220_35)"/>
<path d="M127.28 0.000976562C109.431 0.000976562 94.9094 14.5224 94.9094 32.3718C94.9094 41.7372 98.8751 50.451 105.864 56.6072C102.357 62.3484 98.5512 65.6571 98.5122 65.6908C97.6746 66.4061 97.3931 67.5795 97.8146 68.5969C98.2106 69.552 99.1414 70.166 100.162 70.166C100.229 70.166 100.296 70.1632 100.364 70.1582C100.782 70.1249 110.329 69.3098 118.797 63.6153C121.557 64.3637 124.405 64.7429 127.281 64.7429C145.13 64.7429 159.651 50.2215 159.651 32.3721C159.651 14.5224 145.13 0.000976562 127.28 0.000976562ZM127.28 59.6581C124.496 59.6581 121.743 59.2374 119.099 58.4074C118.33 58.166 117.491 58.3035 116.839 58.7797C113.709 61.0644 110.274 62.5389 107.324 63.4831C108.643 61.7426 110.053 59.6503 111.374 57.2349C111.975 56.1358 111.686 54.7625 110.692 53.9989C103.893 48.7756 99.9939 40.8925 99.9939 32.3718C99.9939 17.3259 112.234 5.08549 127.28 5.08549C142.326 5.08549 154.567 17.3259 154.567 32.3718C154.567 47.4176 142.326 59.6581 127.28 59.6581Z" fill="url(#paint4_linear_220_35)"/>
<path d="M129.992 46.0993H129.822V29.4903H129.992C131.396 29.4903 132.534 28.3521 132.534 26.948C132.534 25.5439 131.396 24.4058 129.992 24.4058H124.568C123.164 24.4058 122.026 25.5439 122.026 26.948C122.026 28.3521 123.164 29.4903 124.568 29.4903H124.738V46.0993H124.568C123.164 46.0993 122.026 47.2374 122.026 48.6415C122.026 50.0456 123.164 51.1838 124.568 51.1838H129.992C131.396 51.1838 132.534 50.0456 132.534 48.6415C132.534 47.2377 131.396 46.0993 129.992 46.0993Z" fill="url(#paint5_linear_220_35)"/>
<defs>
<linearGradient id="paint0_linear_220_35" x1="124.752" y1="18.6446" x2="129.871" y2="18.6232" gradientUnits="userSpaceOnUse">
<stop stop-color="#1A4578"/>
</linearGradient>
<linearGradient id="paint1_linear_220_35" x1="-1.01958e-06" y1="151.517" x2="97.6873" y2="151.24" gradientUnits="userSpaceOnUse">
<stop stop-color="#1A4578"/>
</linearGradient>
<linearGradient id="paint2_linear_220_35" x1="30.3263" y1="75.59" x2="45.8238" y2="75.462" gradientUnits="userSpaceOnUse">
<stop stop-color="#1A4578"/>
</linearGradient>
<linearGradient id="paint3_linear_220_35" x1="51.5215" y1="75.59" x2="67.0193" y2="75.462" gradientUnits="userSpaceOnUse">
<stop stop-color="#1A4578"/>
</linearGradient>
<linearGradient id="paint4_linear_220_35" x1="94.9094" y1="70.166" x2="159.92" y2="69.9158" gradientUnits="userSpaceOnUse">
<stop stop-color="#1A4578"/>
</linearGradient>
<linearGradient id="paint5_linear_220_35" x1="122.026" y1="51.1838" x2="132.578" y2="51.1665" gradientUnits="userSpaceOnUse">
<stop stop-color="#1A4578"/>
</linearGradient>
</defs>
</svg>
