<svg width="92" height="52" viewBox="0 0 92 52" fill="none" xmlns="http://www.w3.org/2000/svg">
<path d="M57.27 32.6349C54.9574 31.3717 52.3052 30.6548 49.486 30.6548H42.7854C39.887 30.6548 37.1666 31.4131 34.8109 32.741C29.8569 35.5297 26.5111 40.8395 26.5111 46.9291V51.9495H65.7603V46.9291C65.7603 40.7604 62.3282 35.3949 57.27 32.6349Z" fill="white"/>
<path d="M75.7743 26.1948H70.2039C66.9516 26.1948 63.9203 27.1562 61.3777 28.8129C62.5996 29.6143 63.7478 30.5505 64.8061 31.6088C68.8976 35.7003 71.1509 41.1412 71.1509 46.929V49.2901H92V42.4206C92 33.474 84.7209 26.1948 75.7743 26.1948Z" fill="white"/>
<path d="M21.7961 26.1953H16.2258C7.27914 26.1953 0 33.4745 0 42.4211V49.2905H21.1205V46.9295C21.1205 41.1417 23.3755 35.7008 27.467 31.6093C28.4859 30.5905 29.5873 29.6848 30.7589 28.9032C28.1894 27.1926 25.1077 26.1953 21.7961 26.1953Z" fill="white"/>
<path d="M72.9806 1.79199C72.952 1.79199 72.9224 1.79217 72.8936 1.79253C66.8637 1.8423 62.0006 7.05414 62.0531 13.4102C62.1054 19.7361 67.0062 24.8477 72.9971 24.8477C73.0259 24.8477 73.0554 24.8475 73.0841 24.8472C76.0409 24.8227 78.8 23.5771 80.8534 21.3395C82.8591 19.1538 83.9498 16.2737 83.9248 13.2295C83.8725 6.90356 78.9718 1.79199 72.9806 1.79199Z" fill="white"/>
<path d="M19.0026 1.79199C18.9741 1.79199 18.9444 1.79217 18.9157 1.79253C12.8857 1.8423 8.02266 7.05414 8.07513 13.4102C8.12724 19.7361 13.0282 24.8477 19.0192 24.8477C19.0479 24.8477 19.0774 24.8475 19.1061 24.8472C22.0627 24.8227 24.822 23.5771 26.8755 21.3395C28.8813 19.1538 29.972 16.2737 29.9469 13.2295C29.8946 6.90356 24.9938 1.79199 19.0026 1.79199Z" fill="white"/>
<path d="M46.1365 0C39.1844 0 33.5297 5.97461 33.5297 13.3202C33.5297 18.6282 36.4837 23.221 40.7477 25.3593C42.3829 26.1805 44.2103 26.6387 46.1365 26.6387C48.0628 26.6387 49.8902 26.1805 51.5254 25.3593C55.7893 23.221 58.7434 18.6282 58.7434 13.3202C58.7434 5.97461 53.0886 0 46.1365 0Z" fill="white"/>
</svg>
