<svg width="116" height="173" viewBox="0 0 116 173" fill="none" xmlns="http://www.w3.org/2000/svg">
<path d="M113.478 139.439C112.086 139.439 110.957 140.568 110.957 141.96V165.662C110.957 166.429 110.333 167.054 109.566 167.054H96.014V117.409C96.014 116.017 94.8853 114.888 93.493 114.888C92.1008 114.888 90.9721 116.017 90.9721 117.409V167.054H63.6837L71.5971 158.348C72.4616 157.397 72.8694 156.042 72.6875 154.723C72.6842 154.697 72.6801 154.672 72.6758 154.646L65.1388 110.12L67.1693 107.064C68.292 107.861 69.1569 108.629 70.7787 108.629C72.4284 108.629 73.9708 107.705 74.7298 106.185V106.185L82.6792 90.2528L100.788 97.266C101.443 97.547 110.957 101.831 110.957 113.144V130.196C110.956 131.587 112.085 132.717 113.478 132.717C114.87 132.717 115.999 131.588 115.999 130.196V113.144C115.999 98.2388 103.236 92.8208 102.693 92.5972C102.677 92.5905 102.661 92.5841 102.645 92.5781L72.5053 80.9058V73.8371C77.2924 70.1141 80.6117 64.5953 81.4449 58.299C83.8318 58.1309 86.0465 57.2395 87.8552 55.6843C90.2171 53.653 91.5724 50.6968 91.5724 47.5749C91.5724 44.984 90.6376 42.5102 88.9718 40.5825V31.2439C88.9715 14.0161 74.9557 0 57.7279 0C40.5001 0 26.4844 14.0161 26.4844 31.2439V40.8272C24.8007 42.7354 23.8851 45.0842 23.8851 47.5746C23.8851 50.6975 25.2397 53.6534 27.6023 55.6849C29.4097 57.2395 31.623 58.1299 34.0092 58.2983C34.8492 64.7126 38.2652 70.4372 43.46 74.2102V80.9058L13.3529 92.5778C13.3371 92.5838 13.3213 92.5902 13.3055 92.5966C12.762 92.8201 0 98.2381 0 113.143V165.661C0 169.209 2.88631 172.095 6.43412 172.095H30.4527C31.8449 172.095 32.9736 170.967 32.9736 169.574C32.9736 168.182 31.8449 167.053 30.4527 167.053H25.0286V117.409C25.0286 116.017 23.8999 114.888 22.5076 114.888C21.1154 114.888 19.9867 116.017 19.9867 117.409V167.054H6.43445C5.66708 167.054 5.04256 166.43 5.04256 165.662V113.144C5.04256 101.793 14.6198 97.5185 15.208 97.267L33.303 90.2521L41.253 106.185C42.0137 107.709 43.5582 108.629 45.2045 108.629C46.8183 108.629 47.6747 107.873 48.8139 107.064L50.8444 110.12L43.3081 154.646C43.3037 154.672 43.3 154.697 43.2963 154.722C43.1142 156.041 43.5219 157.397 44.3867 158.349L52.3002 167.054H42.2181C40.8258 167.054 39.6971 168.183 39.6971 169.575C39.6971 170.968 40.8258 172.096 42.2181 172.096H109.566C113.114 172.096 116 169.21 116 165.662V141.961C115.999 140.568 114.871 139.439 113.478 139.439ZM77.957 88.4242L70.5457 103.278C70.3615 103.147 66.4339 100.356 61.6327 96.947C63.716 94.3753 61.2787 97.3837 70.7871 85.6475L77.957 88.4242ZM63.0558 104.143L61.1339 107.036H54.8473L52.9253 104.143L57.9908 100.545L63.0558 104.143ZM48.5016 81.7192V77.0014C51.5644 78.2359 54.8376 78.8084 58.0341 78.8084C61.3392 78.8084 64.5805 78.1038 67.4631 76.8434V81.7397L57.9908 93.4318L48.5016 81.7192ZM86.5302 47.5749C86.5298 49.2263 85.8146 50.7889 84.5675 51.8615C83.743 52.5707 82.7471 53.0242 81.6564 53.2016V41.9492C84.5538 42.4197 86.5302 44.823 86.5302 47.5749ZM33.8008 53.2016C30.8705 52.726 28.927 50.3032 28.927 47.5746C28.927 44.8795 31.1612 42.6859 33.8008 42.0759V53.2016ZM33.9363 36.9389C33.1333 37.031 32.2129 37.2484 31.5269 37.4817V31.2439C31.5269 16.7962 43.2806 5.04222 57.7282 5.04222C72.1759 5.04222 83.9296 16.7962 83.9296 31.2439V37.3086C83.1968 37.0858 82.4368 36.9385 81.6567 36.8693C81.6567 34.4367 81.6779 34.906 73.7201 26.3506C72.2566 24.7782 69.8358 24.4488 67.9935 25.6524C59.2106 31.3898 48.4965 34.272 38.6111 33.5621C36.4427 33.3998 34.4677 34.828 33.9363 36.9389ZM38.843 55.1865V39.4585V38.6299C49.7251 39.2672 61.1342 36.0344 70.3511 30.1316C74.0008 34.0502 75.9772 36.1056 76.6145 36.8874C76.6145 38.8652 76.6145 52.9223 76.6145 55.1861C76.6145 65.4201 68.2698 73.7658 58.0345 73.7658C46.541 73.7661 38.843 64.8501 38.843 55.1865ZM45.4361 103.278L38.0249 88.4242L45.182 85.6522L54.3384 96.9544C49.6821 100.261 45.8586 102.977 45.4361 103.278ZM48.3285 155.19L55.6254 112.077H60.3551L67.652 155.19L57.9904 165.819L48.3285 155.19Z" fill="url(#paint0_linear_220_65)"/>
<defs>
<linearGradient id="paint0_linear_220_65" x1="-1.21575e-06" y1="172.096" x2="116.483" y2="171.769" gradientUnits="userSpaceOnUse">
<stop stop-color="#1A4578"/>
</linearGradient>
</defs>
</svg>
